<svg xmlns="http://www.w3.org/2000/svg"  viewBox="0 0 64 64"><linearGradient id="AZ~RkqQSFDejOwy5grzmqa" x1="27" x2="27" y1="23.125" y2="30.832" gradientUnits="userSpaceOnUse" spreadMethod="reflect"><stop offset="0" stop-color="#6dc7ff"/><stop offset="1" stop-color="#e6abff"/></linearGradient><path fill="url(#AZ~RkqQSFDejOwy5grzmqa)" d="M24,30v-5c0-0.552,0.447-1,1-1h5L24,30z"/><linearGradient id="AZ~RkqQSFDejOwy5grzmqb" x1="32" x2="32" y1="5.75" y2="59.141" gradientUnits="userSpaceOnUse" spreadMethod="reflect"><stop offset="0" stop-color="#1a6dff"/><stop offset="1" stop-color="#c822ff"/></linearGradient><path fill="url(#AZ~RkqQSFDejOwy5grzmqb)" d="M32,6C17.663,6,6,17.663,6,32s11.663,26,26,26s26-11.663,26-26S46.337,6,32,6z M32,56 C18.766,56,8,45.233,8,32S18.766,8,32,8s24,10.767,24,24S45.233,56,32,56z"/><linearGradient id="AZ~RkqQSFDejOwy5grzmqc" x1="32" x2="32" y1="5.75" y2="59.141" gradientUnits="userSpaceOnUse" spreadMethod="reflect"><stop offset="0" stop-color="#1a6dff"/><stop offset="1" stop-color="#c822ff"/></linearGradient><path fill="url(#AZ~RkqQSFDejOwy5grzmqc)" d="M42,20.184V20c0-1.654-1.346-3-3-3H25c-1.654,0-3,1.346-3,3v0.184c-1,0.415-2,1.514-2,2.816 v21.069c0,1.135,0.628,2.16,1.64,2.675c0.433,0.221,0.899,0.329,1.363,0.329c0.622,0,1.239-0.195,1.764-0.577l5.471-3.979 c1.055-0.766,2.471-0.766,3.525,0l5.47,3.979c0.917,0.668,2.115,0.763,3.128,0.248c1.012-0.515,1.64-1.54,1.64-2.675V23 C44,21.698,43,20.599,42,20.184z M25,19h14c0.552,0,1,0.448,1,1H24C24,19.448,24.448,19,25,19z M42,44.069 c0,0.385-0.204,0.718-0.547,0.893c-0.344,0.173-0.733,0.142-1.044-0.083L34.938,40.9c-1.758-1.277-4.119-1.277-5.877,0l-5.472,3.979 c-0.309,0.225-0.7,0.255-1.043,0.083C22.204,44.787,22,44.454,22,44.069V23c0-0.552,0.448-1,1-1h18c0.552,0,1,0.448,1,1V44.069z"/></svg>